<?xml version="1.0" encoding="UTF-8"?>
<svg width="115px" height="27px" viewBox="0 0 115 27" version="1.1" xmlns="http://www.w3.org/2000/svg" xmlns:xlink="http://www.w3.org/1999/xlink">
    <!-- Generator: Sketch 46.2 (44496) - http://www.bohemiancoding.com/sketch -->
    <title>LiveTiles new logo</title>
    <desc>Created with Sketch.</desc>
    <defs></defs>
    <g id="Bot-Designer-page" stroke="none" stroke-width="1" fill="none" fill-rule="evenodd">
        <g id="LiveTiles-Bots-—-product-page-Copy-2" transform="translate(-45.000000, -36.000000)" fill="#3D3A3B">
            <g id="LiveTiles-new-logo" transform="translate(45.000000, 36.000000)">
                <g id="box">
                    <polygon id="Fill-1" points="1.44486 12.5559643 0.882893333 16.41465 7.66666667e-05 22.4684357 10.5888933 16.41465 12.1160933 15.5417786 13.2108933 14.18715 15.4802267 11.3776071 2.73017667 3.74123571"></polygon>
                    <polygon id="Fill-2" points="25.0458883 0.000154285714 15.4157883 1.33202571 4.277655 2.87295429 17.1699217 10.5941829 17.633755 10.8718971 18.9278883 11.6471829 28.2950217 6.29192571 27.9116883 5.54826857 25.0485717 0.000154285714"></polygon>
                    <polygon id="Fill-3" points="9.816285 18.6313114 1.527085 23.3701971 8.17600167 24.7498971 17.1701517 26.6163686 18.2316017 26.8362257 18.2316017 18.9695829 17.6336017 18.9213686 17.1701517 18.88434 10.4035517 18.3435686"></polygon>
                    <polygon id="Fill-4" points="19.764705 12.9433757 19.764705 14.1873043 19.764705 16.4148043 19.764705 26.0414614 20.700805 24.9946329 25.8696717 19.2135471 27.016605 14.1873043 28.431105 7.98887571"></polygon>
                </g>
                <path d="M45.3192,19.2024 L45.3192,21.6 L36.2280667,21.6 L36.2280667,5.9832 L39.1153333,5.9832 L39.1153333,19.2024 L45.3192,19.2024 Z M49.7091333,10.5192 L49.7091333,21.6 L47.0472667,21.6 L47.0472667,10.5192 L49.7091333,10.5192 Z M50.0740667,7.29 C50.0740667,7.52040115 50.027556,7.73639899 49.9345333,7.938 C49.8415106,8.13960101 49.7180785,8.31599924 49.5642333,8.4672 C49.4103881,8.61840076 49.2297121,8.73899955 49.0222,8.829 C48.8146879,8.91900045 48.5928678,8.964 48.3567333,8.964 C48.1277544,8.964 47.911301,8.91900045 47.7073667,8.829 C47.5034323,8.73899955 47.3263341,8.61840076 47.1760667,8.4672 C47.0257992,8.31599924 46.9059449,8.13960101 46.8165,7.938 C46.7270551,7.73639899 46.6823333,7.52040115 46.6823333,7.29 C46.6823333,7.05239881 46.7270551,6.82920104 46.8165,6.6204 C46.9059449,6.41159896 47.0257992,6.23160076 47.1760667,6.0804 C47.3263341,5.92919924 47.5034323,5.80860045 47.7073667,5.7186 C47.911301,5.62859955 48.1277544,5.5836 48.3567333,5.5836 C48.5928678,5.5836 48.8146879,5.62859955 49.0222,5.7186 C49.2297121,5.80860045 49.4103881,5.92919924 49.5642333,6.0804 C49.7180785,6.23160076 49.8415106,6.41159896 49.9345333,6.6204 C50.027556,6.82920104 50.0740667,7.05239881 50.0740667,7.29 Z M62.3422667,10.5192 L57.9738,21.6 L55.5695333,21.6 L51.2010667,10.5192 L53.3906667,10.5192 C53.5910232,10.5192 53.7573882,10.5659995 53.8897667,10.6596 C54.0221451,10.7532005 54.1097998,10.8719993 54.1527333,11.016 L56.2779333,16.9344 C56.3924228,17.2800017 56.4925996,17.6183983 56.5784667,17.9496 C56.6643338,18.2808017 56.7394663,18.6119983 56.8038667,18.9432 C56.8754226,18.6119983 56.9541329,18.2808017 57.04,17.9496 C57.1258671,17.6183983 57.2296216,17.2800017 57.3512667,16.9344 L59.5194,11.016 C59.5694891,10.8719993 59.6589327,10.7532005 59.7877333,10.6596 C59.916534,10.5659995 60.0703769,10.5192 60.2492667,10.5192 L62.3422667,10.5192 Z M70.4996,14.7852 C70.4996,14.4395983 70.4513005,14.1138015 70.3547,13.8078 C70.2580995,13.5017985 70.113201,13.2336012 69.92,13.0032 C69.726799,12.7727988 69.4817237,12.5910007 69.1847667,12.4578 C68.8878096,12.3245993 68.5425575,12.258 68.149,12.258 C67.3833517,12.258 66.7805022,12.4775978 66.3404333,12.9168 C65.9003645,13.3560022 65.6195117,13.978796 65.4978667,14.7852 L70.4996,14.7852 Z M65.4442,16.3944 C65.4871335,16.9632028 65.5873103,17.4545979 65.7447333,17.8686 C65.9021563,18.2826021 66.1096654,18.6245986 66.3672667,18.8946 C66.624868,19.1646013 66.9307649,19.3661993 67.2849667,19.4994 C67.6391684,19.6326007 68.0309312,19.6992 68.4602667,19.6992 C68.8896021,19.6992 69.2598984,19.6488005 69.5711667,19.548 C69.8824349,19.4471995 70.1543433,19.3356006 70.3869,19.2132 C70.6194567,19.0907994 70.823388,18.9792005 70.9987,18.8784 C71.174012,18.7775995 71.3439547,18.7272 71.5085333,18.7272 C71.7303567,18.7272 71.8949328,18.8099992 72.0022667,18.9756 L72.7643333,19.9476 C72.4709541,20.2932017 72.1418018,20.5829988 71.7768667,20.817 C71.4119315,21.0510012 71.030902,21.2381993 70.6337667,21.3786 C70.2366313,21.5190007 69.8323465,21.6179997 69.4209,21.6756 C69.0094535,21.7332003 68.6105353,21.762 68.2241333,21.762 C67.4584851,21.762 66.7465144,21.6342013 66.0882,21.3786 C65.4298856,21.1229987 64.8574469,20.7450025 64.3708667,20.2446 C63.8842865,19.7441975 63.5014681,19.1250037 63.2224,18.387 C62.9433319,17.6489963 62.8038,16.7940049 62.8038,15.822 C62.8038,15.0659962 62.9254432,14.3550033 63.1687333,13.689 C63.4120234,13.0229967 63.7608533,12.4434025 64.2152333,11.9502 C64.6696134,11.4569975 65.2241634,11.0664014 65.8789,10.7784 C66.5336366,10.4903986 67.2724403,10.3464 68.0953333,10.3464 C68.7894257,10.3464 69.4298415,10.4579989 70.0166,10.6812 C70.6033585,10.9044011 71.1078201,11.2301979 71.53,11.6586 C71.9521799,12.0870021 72.283121,12.6125969 72.5228333,13.2354 C72.7625456,13.8582031 72.8824,14.569196 72.8824,15.3684 C72.8824,15.771602 72.8394671,16.0433993 72.7536,16.1838 C72.6677329,16.3242007 72.5031568,16.3944 72.2598667,16.3944 L65.4442,16.3944 Z M83.7123333,8.37 L79.0326,8.37 L79.0326,21.6 L76.1453333,21.6 L76.1453333,8.37 L71.4656,8.37 L71.4656,5.9832 L83.7123333,5.9832 L83.7123333,8.37 Z M87.9842,10.5192 L87.9842,21.6 L85.3223333,21.6 L85.3223333,10.5192 L87.9842,10.5192 Z M88.3491333,7.29 C88.3491333,7.52040115 88.3026227,7.73639899 88.2096,7.938 C88.1165773,8.13960101 87.9931452,8.31599924 87.8393,8.4672 C87.6854548,8.61840076 87.5047788,8.73899955 87.2972667,8.829 C87.0897545,8.91900045 86.8679345,8.964 86.6318,8.964 C86.4028211,8.964 86.1863677,8.91900045 85.9824333,8.829 C85.778499,8.73899955 85.6014008,8.61840076 85.4511333,8.4672 C85.3008659,8.31599924 85.1810116,8.13960101 85.0915667,7.938 C85.0021218,7.73639899 84.9574,7.52040115 84.9574,7.29 C84.9574,7.05239881 85.0021218,6.82920104 85.0915667,6.6204 C85.1810116,6.41159896 85.3008659,6.23160076 85.4511333,6.0804 C85.6014008,5.92919924 85.778499,5.80860045 85.9824333,5.7186 C86.1863677,5.62859955 86.4028211,5.5836 86.6318,5.5836 C86.8679345,5.5836 87.0897545,5.62859955 87.2972667,5.7186 C87.5047788,5.80860045 87.6854548,5.92919924 87.8393,6.0804 C87.9931452,6.23160076 88.1165773,6.41159896 88.2096,6.6204 C88.3026227,6.82920104 88.3491333,7.05239881 88.3491333,7.29 Z M93.3723333,5.5512 L93.3723333,21.6 L90.7212,21.6 L90.7212,5.5512 L93.3723333,5.5512 Z M103.1182,14.7852 C103.1182,14.4395983 103.0699,14.1138015 102.9733,13.8078 C102.8767,13.5017985 102.731801,13.2336012 102.5386,13.0032 C102.345399,12.7727988 102.100324,12.5910007 101.803367,12.4578 C101.50641,12.3245993 101.161158,12.258 100.7676,12.258 C100.001952,12.258 99.3991022,12.4775978 98.9590333,12.9168 C98.5189645,13.3560022 98.2381117,13.978796 98.1164667,14.7852 L103.1182,14.7852 Z M98.0628,16.3944 C98.1057335,16.9632028 98.2059103,17.4545979 98.3633333,17.8686 C98.5207563,18.2826021 98.7282654,18.6245986 98.9858667,18.8946 C99.243468,19.1646013 99.5493649,19.3661993 99.9035667,19.4994 C100.257768,19.6326007 100.649531,19.6992 101.078867,19.6992 C101.508202,19.6992 101.878498,19.6488005 102.189767,19.548 C102.501035,19.4471995 102.772943,19.3356006 103.0055,19.2132 C103.238057,19.0907994 103.441988,18.9792005 103.6173,18.8784 C103.792612,18.7775995 103.962555,18.7272 104.127133,18.7272 C104.348957,18.7272 104.513533,18.8099992 104.620867,18.9756 L105.382933,19.9476 C105.089554,20.2932017 104.760402,20.5829988 104.395467,20.817 C104.030532,21.0510012 103.649502,21.2381993 103.252367,21.3786 C102.855231,21.5190007 102.450947,21.6179997 102.0395,21.6756 C101.628053,21.7332003 101.229135,21.762 100.842733,21.762 C100.077085,21.762 99.3651144,21.6342013 98.7068,21.3786 C98.0484856,21.1229987 97.4760469,20.7450025 96.9894667,20.2446 C96.5028865,19.7441975 96.1200681,19.1250037 95.841,18.387 C95.5619319,17.6489963 95.4224,16.7940049 95.4224,15.822 C95.4224,15.0659962 95.5440432,14.3550033 95.7873333,13.689 C96.0306234,13.0229967 96.3794533,12.4434025 96.8338333,11.9502 C97.2882134,11.4569975 97.8427634,11.0664014 98.4975,10.7784 C99.1522366,10.4903986 99.8910403,10.3464 100.713933,10.3464 C101.408026,10.3464 102.048442,10.4579989 102.6352,10.6812 C103.221958,10.9044011 103.72642,11.2301979 104.1486,11.6586 C104.57078,12.0870021 104.901721,12.6125969 105.141433,13.2354 C105.381146,13.8582031 105.501,14.569196 105.501,15.3684 C105.501,15.771602 105.458067,16.0433993 105.3722,16.1838 C105.286333,16.3242007 105.121757,16.3944 104.878467,16.3944 L98.0628,16.3944 Z M114.205733,12.6792 C114.134177,12.7944006 114.059045,12.8753998 113.980333,12.9222 C113.901622,12.9690002 113.801445,12.9924 113.6798,12.9924 C113.550999,12.9924 113.413256,12.9564004 113.266567,12.8844 C113.119877,12.8123996 112.949934,12.7314005 112.756733,12.6414 C112.563532,12.5513996 112.343501,12.4704004 112.096633,12.3984 C111.849765,12.3263996 111.558179,12.2904 111.221867,12.2904 C110.699508,12.2904 110.289857,12.4019989 109.9929,12.6252 C109.695943,12.8484011 109.547467,13.1399982 109.547467,13.5 C109.547467,13.7376012 109.624388,13.9373992 109.778233,14.0994 C109.932079,14.2614008 110.13601,14.4035994 110.390033,14.526 C110.644057,14.6484006 110.932065,14.7581995 111.254067,14.8554 C111.576068,14.9526005 111.903432,15.0587994 112.236167,15.174 C112.568902,15.2892006 112.896265,15.4205993 113.218267,15.5682 C113.540268,15.7158007 113.828277,15.9029989 114.0823,16.1298 C114.336323,16.3566011 114.540255,16.6283984 114.6941,16.9452 C114.847945,17.2620016 114.924867,17.6435978 114.924867,18.09 C114.924867,18.6228027 114.830057,19.1141977 114.640433,19.5642 C114.45081,20.0142022 114.169957,20.4029984 113.797867,20.7306 C113.425776,21.0582016 112.966036,21.3137991 112.418633,21.4974 C111.871231,21.6810009 111.239759,21.7728 110.5242,21.7728 C110.144954,21.7728 109.774657,21.7386003 109.4133,21.6702 C109.051943,21.6017997 108.704902,21.5064006 108.372167,21.384 C108.039432,21.2615994 107.731746,21.1176008 107.4491,20.952 C107.166454,20.7863992 106.917801,20.606401 106.703133,20.412 L107.314933,19.3968 C107.393645,19.2743994 107.486666,19.1808003 107.594,19.116 C107.701334,19.0511997 107.837288,19.0188 108.001867,19.0188 C108.166445,19.0188 108.322077,19.0655995 108.468767,19.1592 C108.615456,19.2528005 108.785399,19.3535995 108.9786,19.4616 C109.171801,19.5696005 109.398988,19.6703995 109.660167,19.764 C109.921346,19.8576005 110.252287,19.9044 110.653,19.9044 C110.967846,19.9044 111.237966,19.8666004 111.463367,19.791 C111.688768,19.7153996 111.87481,19.6164006 112.0215,19.494 C112.16819,19.3715994 112.275522,19.2294008 112.3435,19.0674 C112.411478,18.9053992 112.445467,18.7380009 112.445467,18.5652 C112.445467,18.3059987 112.368545,18.0936008 112.2147,17.928 C112.060855,17.7623992 111.856923,17.6184006 111.6029,17.496 C111.348877,17.3735994 111.059079,17.2638005 110.7335,17.1666 C110.407921,17.0693995 110.075191,16.9632006 109.7353,16.848 C109.395409,16.7327994 109.062679,16.5978008 108.7371,16.443 C108.411521,16.2881992 108.121723,16.0920012 107.8677,15.8544 C107.613677,15.6167988 107.409745,15.3252017 107.2559,14.9796 C107.102055,14.6339983 107.025133,14.2164024 107.025133,13.7268 C107.025133,13.2731977 107.114577,12.8412021 107.293467,12.4308 C107.472356,12.0203979 107.73532,11.6622015 108.082367,11.3562 C108.429413,11.0501985 108.86232,10.8054009 109.3811,10.6218 C109.89988,10.4381991 110.499152,10.3464 111.178933,10.3464 C111.937426,10.3464 112.62793,10.4723987 113.250467,10.7244 C113.873003,10.9764013 114.391776,11.3075979 114.8068,11.718 L114.205733,12.6792 Z" id="LiveTiles-Copy-2"></path>
            </g>
        </g>
    </g>
</svg>